<?xml version="1.0" standalone="no"?>
<!DOCTYPE svg PUBLIC "-//W3C//DTD SVG 20010904//EN"
 "http://www.w3.org/TR/2001/REC-SVG-20010904/DTD/svg10.dtd">
<svg version="1.0" xmlns="http://www.w3.org/2000/svg"
 width="260.000000pt" height="260.000000pt" viewBox="0 0 260.000000 260.000000"
 preserveAspectRatio="xMidYMid meet">
<metadata>
Created by potrace 1.11, written by Peter Selinger 2001-2013
</metadata>
<g transform="translate(0.000000,260.000000) scale(0.100000,-0.100000)"
fill="#000000" stroke="none">
<path d="M1247 2404 c-4 -4 -7 -16 -7 -26 0 -12 -7 -18 -25 -18 -13 0 -39 -13
-57 -29 -27 -23 -40 -27 -75 -25 -34 3 -43 1 -43 -11 0 -16 -13 -24 -47 -29
-10 -2 -17 -10 -17 -19 1 -9 -9 -26 -22 -38 -23 -22 -24 -22 -44 -4 -11 10
-20 24 -20 32 0 21 -37 15 -43 -7 -3 -13 -10 -18 -21 -14 -9 3 -16 2 -16 -4 0
-6 6 -12 13 -15 6 -2 9 -7 5 -11 -3 -4 -15 -3 -26 3 -27 14 -31 7 -18 -34 12
-40 21 -43 38 -15 13 20 38 28 38 11 0 -20 -26 -57 -38 -53 -7 2 -12 -5 -12
-17 0 -24 -11 -33 -29 -21 -9 5 -11 17 -7 34 5 21 1 28 -24 41 l-30 16 6 -42
c4 -23 15 -50 26 -61 22 -22 23 -32 3 -48 -13 -11 -21 -9 -45 8 -16 12 -32 22
-35 22 -13 0 -2 -27 22 -52 30 -31 18 -36 -29 -12 -29 15 -30 15 -24 -1 3 -9
6 -19 6 -21 0 -2 6 -4 13 -4 8 0 22 -9 32 -20 10 -11 13 -20 7 -20 -7 0 -12 4
-12 8 0 5 -15 13 -34 19 l-34 11 20 -39 c11 -22 24 -39 29 -39 5 0 9 -4 9 -10
0 -5 -13 -10 -30 -10 -25 0 -30 -4 -30 -25 0 -18 -5 -25 -20 -25 -31 0 -24
-33 10 -53 16 -10 30 -22 30 -27 0 -16 -19 -21 -39 -11 -15 8 -21 7 -27 -7 -4
-9 -6 -23 -5 -31 2 -8 -7 -22 -20 -32 l-23 -17 35 -32 c22 -21 27 -30 14 -25
-11 5 -36 9 -55 9 -34 1 -35 0 -37 -42 -2 -37 0 -44 22 -52 16 -6 23 -15 19
-24 -4 -11 4 -18 28 -24 23 -6 34 -15 36 -30 3 -19 -1 -22 -31 -22 -30 0 -34
-3 -30 -20 4 -16 0 -20 -21 -20 -32 0 -37 -11 -39 -81 -2 -49 0 -54 21 -57 17
-3 25 2 29 17 7 26 23 17 23 -12 -1 -41 -54 -82 -71 -55 -4 7 -12 9 -16 4 -4
-5 -2 -11 5 -13 6 -3 12 -13 12 -24 0 -24 51 -51 58 -31 2 6 17 12 34 12 23 0
29 -4 26 -17 -2 -10 -12 -19 -23 -21 -37 -6 -85 -36 -85 -54 0 -9 -4 -20 -10
-23 -5 -3 -10 -19 -10 -36 0 -35 25 -39 71 -12 15 9 31 14 35 10 13 -13 -6
-38 -35 -43 -30 -6 -41 -25 -41 -76 0 -33 10 -35 35 -8 22 24 43 26 51 5 9
-21 -14 -45 -42 -45 -17 0 -22 -4 -18 -15 4 -10 0 -15 -14 -15 -18 0 -20 -7
-19 -77 0 -43 2 -71 4 -61 2 9 19 23 37 32 18 9 39 22 46 31 13 16 44 21 38 6
-1 -5 -19 -41 -38 -79 -27 -55 -39 -70 -53 -66 -9 3 -34 -2 -55 -11 -36 -16
-37 -17 -34 -66 3 -31 0 -49 -7 -49 -6 0 -11 -8 -11 -17 0 -9 -10 -27 -22 -41
l-23 -23 21 -17 c14 -11 22 -29 22 -49 1 -28 -4 -34 -26 -39 -46 -10 -52 -13
-52 -27 0 -22 -26 -76 -65 -134 l-35 -53 164 0 c148 0 165 2 169 18 29 107 33
116 62 134 17 11 44 17 63 16 29 -3 36 -8 46 -38 7 -19 23 -56 35 -83 l23 -47
59 0 60 0 -21 22 c-28 31 -91 163 -85 180 15 39 190 83 293 74 110 -10 103 1
98 -146 l-5 -127 118 -1 c86 -1 118 2 119 11 3 32 20 99 27 105 4 4 5 -21 3
-56 l-3 -62 153 0 c151 0 152 0 151 23 -1 34 -14 63 -23 49 -12 -19 -23 -14
-36 18 -7 16 -16 28 -20 25 -9 -6 -20 30 -20 68 0 20 -6 30 -20 34 -12 3 -20
14 -20 27 0 11 -7 30 -16 41 -10 14 -13 32 -8 62 4 28 2 48 -6 58 -6 8 -13 24
-16 37 -2 13 -7 38 -10 57 -6 31 -5 33 17 26 37 -11 41 -11 46 3 3 6 0 12 -6
12 -24 0 -9 36 20 49 17 7 57 38 90 69 50 48 59 62 64 101 10 69 13 75 30 61
8 -7 12 -16 10 -21 -5 -7 25 -29 39 -29 3 0 6 20 6 45 0 43 1 45 21 35 13 -7
18 -17 15 -27 -4 -10 2 -24 16 -37 14 -13 23 -16 26 -8 2 7 14 12 26 12 13 0
37 7 54 16 l31 15 -20 36 c-19 33 -19 35 -2 28 63 -26 70 -13 18 31 -38 31
-44 44 -20 44 8 0 15 -4 15 -9 0 -23 41 4 47 30 3 16 12 29 19 29 19 0 18 16
-2 24 -22 8 -8 25 16 19 21 -5 28 11 10 22 -18 11 -11 41 15 63 21 19 25 30
25 81 0 33 5 63 10 66 15 9 7 95 -10 106 -13 8 -11 13 9 30 21 17 22 22 10 30
-7 5 -23 9 -34 9 -18 1 -19 1 -2 11 25 14 21 36 -9 52 l-27 14 24 16 c13 10
29 17 36 17 20 0 16 18 -7 32 -11 7 -20 20 -20 30 0 9 -5 20 -10 23 -6 4 -8
15 -5 25 4 12 -3 31 -16 49 -20 27 -21 34 -11 69 16 53 15 60 -8 67 -20 6 -29
45 -10 45 6 0 10 7 10 15 0 8 -9 15 -20 15 -24 0 -26 22 -5 40 20 17 19 42 -1
38 -9 -2 -20 4 -24 12 -28 58 -45 86 -54 92 -6 4 -9 20 -8 36 3 23 -2 31 -20
37 -27 9 -39 12 -55 14 -6 0 -33 23 -61 49 -27 26 -54 46 -60 44 -17 -5 -52
17 -52 33 0 10 -10 15 -29 15 -15 0 -40 9 -54 20 -15 12 -40 20 -64 20 -21 0
-44 5 -50 11 -8 8 -37 9 -90 5 -43 -4 -100 -8 -126 -10 -27 -2 -54 -9 -60 -15
-8 -8 -14 -6 -22 9 -6 11 -14 17 -18 14z m438 -104 c-3 -5 -17 -10 -31 -10
-13 0 -24 5 -24 10 0 6 14 10 31 10 17 0 28 -4 24 -10z m-85 -24 c-8 -8 -42
-29 -75 -47 -70 -38 -175 -125 -175 -145 0 -8 -4 -14 -10 -14 -24 0 -7 41 33
79 49 47 65 59 122 91 73 42 90 50 105 50 13 0 13 -2 0 -14z m235 -116 c3 -5
15 -10 26 -10 10 0 19 -4 19 -8 0 -5 16 -15 36 -22 41 -16 90 -68 110 -116 25
-60 50 -216 45 -280 -1 -8 -27 -12 -73 -12 -111 1 -301 -45 -329 -78 -14 -17
-2 -18 37 -4 27 11 64 5 64 -10 0 -4 -17 -15 -37 -24 -21 -9 -45 -21 -54 -28
-27 -19 -46 -3 -53 44 -3 23 -24 79 -45 123 -41 85 -61 168 -61 254 0 64 22
105 64 122 17 7 37 17 45 23 32 26 194 46 206 26z m-545 -460 c6 0 10 -11 10
-25 0 -14 -5 -25 -11 -25 -6 0 -8 7 -5 16 3 8 -1 26 -10 39 -16 24 -18 102 -6
160 5 19 8 -6 10 -67 1 -54 7 -98 12 -98z m210 113 c0 -20 -3 -24 -11 -16 -7
7 -9 19 -6 27 10 24 17 19 17 -11z m-179 -16 c-1 -12 -15 -9 -19 4 -3 6 1 10
8 8 6 -3 11 -8 11 -12z m-671 -27 c0 -5 -4 -10 -10 -10 -5 0 -10 5 -10 10 0 6
5 10 10 10 6 0 10 -4 10 -10z m773 -77 c-7 -2 -19 -2 -25 0 -7 3 -2 5 12 5 14
0 19 -2 13 -5z m-83 -19 c0 -8 -4 -12 -10 -9 -5 3 -10 10 -10 16 0 5 5 9 10 9
6 0 10 -7 10 -16z m715 1 c0 -5 -15 -11 -32 -13 -32 -3 -45 11 -20 22 19 8 52
2 52 -9z m-1435 -48 c0 -8 -3 -17 -7 -20 -9 -9 -34 13 -27 24 8 14 34 11 34
-4z m630 -28 c0 -5 -12 -9 -26 -9 -22 0 -24 2 -14 14 12 15 40 11 40 -5z m834
-108 c9 -14 66 -237 66 -258 0 -15 -56 -18 -64 -4 -9 13 -97 10 -93 -3 2 -6
16 -12 30 -14 31 -4 40 -42 10 -42 -10 0 -31 -9 -48 -20 -16 -11 -42 -20 -57
-20 -41 0 -34 -17 18 -43 44 -21 46 -23 40 -58 -3 -20 -2 -57 3 -82 6 -37 5
-47 -6 -51 -22 -9 -58 -7 -68 2 -6 5 -39 17 -75 26 -70 20 -154 56 -211 93
l-35 23 2 91 c2 55 -2 99 -9 110 -8 13 -8 24 1 44 7 14 12 66 12 114 0 98 18
151 51 151 11 0 22 -7 25 -15 4 -9 19 -15 35 -15 25 0 72 -21 89 -40 3 -3 25
-12 50 -20 25 -7 50 -18 57 -23 19 -14 31 0 31 37 0 47 9 59 72 104 l55 38 5
-56 c3 -30 9 -61 14 -69z m-764 111 c0 -14 -11 -21 -26 -15 -8 3 -11 9 -8 14
7 11 34 12 34 1z m75 -2 c3 -5 -1 -10 -9 -10 -9 0 -16 5 -16 10 0 6 4 10 9 10
6 0 13 -4 16 -10z m490 -60 c4 -6 -6 -10 -22 -10 -22 0 -25 2 -13 10 19 12 27
12 35 0z m-445 -119 c0 -11 -4 -23 -10 -26 -6 -4 -10 5 -10 19 0 14 5 26 10
26 6 0 10 -9 10 -19z m2 -126 c2 -34 -1 -54 -7 -52 -13 5 -19 107 -6 107 5 0
11 -25 13 -55z m-882 -15 c0 -5 -7 -10 -15 -10 -8 0 -15 5 -15 10 0 6 7 10 15
10 8 0 15 -4 15 -10z m570 0 c0 -5 -4 -10 -10 -10 -5 0 -10 5 -10 10 0 6 5 10
10 10 6 0 10 -4 10 -10z m398 -72 c-6 -18 -28 -21 -28 -4 0 9 7 16 16 16 9 0
14 -5 12 -12z m-488 -34 c0 -9 -5 -14 -12 -12 -18 6 -21 28 -4 28 9 0 16 -7
16 -16z m209 -97 c7 -25 9 -27 10 -9 1 26 35 31 45 6 3 -9 6 -100 7 -202 0
-129 3 -180 10 -163 5 13 9 33 8 45 -1 11 -1 32 1 46 8 63 16 -134 8 -205 -14
-126 -6 -467 11 -473 10 -3 11 1 5 19 -10 26 -10 68 -4 232 3 59 8 107 11 107
11 0 19 -72 19 -177 0 -57 4 -105 10 -108 6 -3 10 2 10 12 0 10 5 25 10 33 8
11 10 3 8 -30 -3 -38 -6 -44 -22 -42 -11 2 -17 -1 -14 -10 3 -7 10 -13 16 -13
18 0 25 -14 14 -28 -7 -8 -10 -35 -8 -60 3 -44 2 -47 -21 -47 -22 0 -24 3 -19
24 3 14 3 32 0 41 -6 14 -9 14 -28 -4 -27 -25 -94 -54 -111 -47 -10 3 -12 32
-9 118 23 600 26 734 15 718 -6 -9 -11 -70 -11 -146 0 -147 -6 -159 -58 -121
-79 59 -129 115 -104 118 4 0 19 1 33 3 14 1 38 10 53 20 22 14 27 23 23 44
-6 32 9 101 35 159 12 26 19 60 17 85 -6 98 9 126 30 55z m846 -17 c-3 -5 -12
-7 -20 -3 -21 7 -19 13 6 13 11 0 18 -4 14 -10z m5 -55 c-16 -19 -30 -19 -30
-1 0 8 8 16 18 18 24 6 27 1 12 -17z m-542 -43 c4 2 20 10 35 18 26 13 32 12
74 -11 26 -13 48 -29 50 -34 1 -6 -10 -17 -26 -26 -15 -9 -31 -27 -34 -40 -18
-81 -45 -151 -76 -198 -42 -61 -54 -84 -71 -126 -21 -52 -27 -60 -43 -63 -25
-5 -35 27 -39 117 -3 77 -1 84 17 87 49 8 65 74 57 239 -1 28 0 61 3 74 6 24
6 24 26 -8 11 -18 23 -31 27 -29z m-414 -99 c9 -23 -3 -34 -32 -27 -37 9 -38
11 -18 33 19 21 41 19 50 -6z m-564 -111 c0 -4 -9 -13 -20 -20 -22 -13 -27 -3
-8 16 14 14 28 16 28 4z m414 -98 c39 -37 94 -84 123 -105 98 -73 74 -83 -32
-13 -69 46 -80 51 -163 73 -42 12 -43 13 -36 44 6 29 24 67 32 67 2 0 36 -30
76 -66z m-318 -89 c3 -8 3 -19 -1 -25 -10 -16 -35 7 -28 26 7 18 22 18 29 -1z
m334 -64 c152 -78 190 -102 190 -122 0 -15 -7 -19 -38 -19 -21 0 -63 7 -93 16
-62 19 -163 14 -238 -12 -24 -8 -50 -13 -58 -10 -30 12 -5 112 40 164 33 36
105 30 197 -17z m-271 20 c18 -11 5 -31 -20 -31 -12 0 -19 7 -19 20 0 21 16
26 39 11z m-139 -31 c0 -5 -9 -14 -20 -20 -22 -12 -27 -1 -8 18 14 14 28 16
28 2z m-70 -120 c0 -10 -9 -24 -19 -30 -11 -5 -23 -19 -26 -30 -13 -39 -45
-17 -45 31 0 12 5 16 14 13 10 -4 13 0 10 13 -4 15 2 18 31 20 29 3 35 0 35
-17z m148 -20 c-11 -18 -28 -27 -28 -16 0 6 30 36 36 36 2 0 -1 -9 -8 -20z
m867 10 c3 -5 1 -19 -5 -30 -16 -30 -74 -24 -78 7 -3 18 3 22 30 26 18 2 36 5
40 5 4 1 10 -2 13 -8z m22 -98 c11 -7 83 -152 83 -166 0 -13 -76 -36 -119 -36
-45 0 -46 1 -59 40 -6 22 -12 62 -12 90 0 41 3 50 18 50 9 0 28 7 42 14 31 17
32 18 47 8z"/>
<path d="M1230 913 c0 -24 3 -33 9 -25 7 12 4 62 -5 62 -2 0 -4 -17 -4 -37z"/>
<path d="M890 2313 c0 -15 30 -86 35 -81 5 5 -19 75 -28 84 -4 4 -7 3 -7 -3z"/>
<path d="M2110 950 c0 -5 7 -10 16 -10 8 0 12 5 9 10 -3 6 -10 10 -16 10 -5 0
-9 -4 -9 -10z"/>
<path d="M453 564 c-20 -21 -16 -42 3 -22 9 9 15 21 13 26 -2 6 -9 4 -16 -4z"/>
</g>
</svg>
